# xmcd
#
# Track frame offsets:
#	150
#	9725
#	28237
#	39835
#	50257
#	65387
#	79890
#	91720
#	105345
#	124557
#	134265
#	147262
#	159780
#	170922
#	184555
#
# Disc length: 2648
#
# Revision: 3
# Processed by: cddbd v1.5.1PL0 Copyright (c) Steve Scherf et al.
# Submitted via: ExactAudioCopy v0.90b4
# Normalized: r2:DSETVAR1
#
DISCID=b60a560f
DTITLE=Various Artist - The Sweetest Thing
DYEAR=2002
DGENRE=Country
TTITLE0=Linda Ronstadt - When Will I Be Loved
TTITLE1=Juice Newton - The Sweetest Thing (I've Ever Known)
TTITLE2=Crystal Gayle - Don't It Make My Brown Eyes Blue
TTITLE3=Jody Miller - Queen Of The House
TTITLE4=Jessi Colter - I'm Not Lisa
TTITLE5=Tanya Tucker - Just Another Love
TTITLE6=Wanda Jackson - Right Or Wrong
TTITLE7=Dottie West - A Lesson In Leavin'
TTITLE8=Bobbie Gentry - Ode To Billy Joe
TTITLE9=Rose Maddox - Sing A Little Song Of Heartache
TTITLE10=Barbara Mandrell - I Wish I Could Fall In Love Today
TTITLE11=Melba Montgomery - Hall Of Shame
TTITLE12=Jean Shepard - A Satisfied Mind
TTITLE13=Billie Jo Spears - Mr. Walker, It's All Over
TTITLE14=Suzy Bogguss - Drive South
EXTD=
EXTT0=
EXTT1=
EXTT2=
EXTT3=
EXTT4=
EXTT5=
EXTT6=
EXTT7=
EXTT8=
EXTT9=
EXTT10=
EXTT11=
EXTT12=
EXTT13=
EXTT14=
PLAYORDER=
